<svg width="107" height="137" viewBox="0 0 107 137" fill="none" xmlns="http://www.w3.org/2000/svg">
<path d="M31 106H76M31 83.5H76M61.0028 1.00654C60.2863 1 59.4803 1 58.5604 1H25.0015C16.6007 1 12.3972 1 9.18848 2.63491C6.36605 4.07301 4.073 6.36604 2.6349 9.18848C1 12.3972 1 16.6007 1 25.0015V112.001C1 120.402 1 124.6 2.63491 127.809C4.07301 130.632 6.36605 132.929 9.18848 134.367C12.394 136 16.5925 136 24.977 136L82.0232 136C90.4075 136 94.5999 136 97.8055 134.367C100.628 132.929 102.929 130.632 104.367 127.809C106 124.604 106 120.411 106 112.027V48.4426C106 47.5226 105.999 46.7165 105.993 46M61.0028 1.00654C63.1438 1.02606 64.4929 1.1055 65.7863 1.41603C67.3169 1.78348 68.7839 2.38948 70.126 3.21191C71.6393 4.13925 72.9386 5.4386 75.5312 8.03125L98.9724 31.4724C101.567 34.0666 102.857 35.3602 103.784 36.874C104.607 38.216 105.215 39.6794 105.583 41.21C105.893 42.5034 105.973 43.8591 105.993 46M61.0028 1.00654L61 22.0016C61 30.4024 61 34.6011 62.6349 37.8098C64.073 40.6322 66.366 42.9286 69.1885 44.3667C72.394 46 76.5926 46 84.9769 46H105.993" stroke="#FAFFFD" stroke-width="2" stroke-linecap="round" stroke-linejoin="round"/>
</svg>
