<svg width="127" height="127" viewBox="0 0 127 127" fill="none" xmlns="http://www.w3.org/2000/svg">
<path d="M84.3333 126H113.847C120.559 126 126 120.559 126 113.847V84.3333M126 42.6667V13.1528C126 6.44098 120.559 1 113.847 1H84.3333M42.6667 1H13.1528C6.44098 1 1 6.44098 1 13.1528V42.6667M1 84.3333V113.847C1 120.559 6.44098 126 13.1528 126H42.6667M84.3333 101.694H101.694M105.167 77.3889H91.2778M73.9167 77.3889V87.8056M77.3889 25.3056H101.694V49.6111H77.3889V25.3056ZM25.3056 25.3056H49.6111V49.6111H25.3056V25.3056ZM25.3056 77.3889H49.6111V101.694H25.3056V77.3889Z" stroke="black" stroke-width="1.5" stroke-linecap="round" stroke-linejoin="round"/>
</svg>
